<svg clip-rule="evenodd" fill-rule="evenodd" stroke-linejoin="round" stroke-miterlimit="2" viewBox="0 0 173 100" xmlns="http://www.w3.org/2000/svg"><path d="m54.962 53.288c0-4.056-1.118-7.133-3.357-7.832v-.559h8.95c3.217 0 4.757 2.098 4.757 5.174v.978c1.399-4.197 4.475-6.714 8.95-6.714 7.274 0 9.091 6.855 9.091 13.566v14.266c0 4.897 1.119 6.294 2.658 7.414v.559c-1.259.279-3.217.56-5.175.56-4.197 0-8.113-1.259-8.113-7.133v-15.106c0-3.498-1.259-5.594-3.357-5.594-2.517 0-3.776 3.357-3.776 9.091v10.209c0 4.757.84 6.715 2.658 7.414v.559h-12.03c-3.217 0-7.552.56-9.931.56-4.197 0-6.855-1.818-7.274-5.594-1.958 3.497-5.174 5.734-9.79 5.734-5.734 0-9.091-3.498-9.091-8.951 0-8.951 9.372-10.63 14.266-12.029 3.076-.84 4.615-2.099 4.615-6.015 0-3.636-1.399-5.875-4.056-5.875-2.377 0-4.197 1.818-4.197 3.776 0 2.239 2.239 3.357 3.776 2.377l.418.281c-.84 2.936-3.076 4.475-6.152 4.475-4.335 0-6.434-2.798-6.434-6.015 0-5.034 5.175-8.532 13.008-8.532 9.231 0 14.266 4.897 14.266 13.988v16.084c0 2.517.559 4.756 2.376 4.756 1.958 0 2.939-2.377 2.939-6.993v-18.879zm65.458 26.715c-.559.278-1.677.559-3.076.559-3.498 0-6.434-1.818-7.833-6.015-1.677 4.056-5.034 6.293-9.372 6.293-8.111 0-13.566-7.833-13.566-18.323s5.315-18.182 12.308-18.182c2.798 0 6.155 1.259 7.973 4.616v-7.833c0-4.056-.978-6.854-3.217-7.551v-.56h9.231c3.217 0 4.616 2.239 4.616 5.316v33.569c0 3.216.978 6.854 2.936 7.551zm-104.342-8.252c0 6.155 2.657 10.21 8.532 13.286 3.916 2.099 10.49 4.475 16.783 4.475 5.593 0 10.768-1.817 10.768-5.455 0-.559-.14-1.119-.418-1.818l.418-.421c2.239 1.258 3.776 3.916 3.776 7.551 0 4.476-2.377 10.631-11.749 10.631-8.113 0-13.566-4.475-23.078-11.749-7.274-5.593-10.631-7.832-20.7-8.113v-.559c2.239-1.118 5.034-3.217 5.034-10.21v-28.251c0-4.056-1.118-6.854-3.357-7.551v-.56h9.232c3.217 0 4.756 2.239 4.756 5.316v33.428zm4.197-30.492c1.677-1.678 2.517-3.498 2.517-5.734v-19.582c0-1.399-.7-2.098-1.958-2.098-2.518 0-4.756 2.798-4.756 6.015 0 3.216 2.098 4.335 4.334 3.497l.419.281c-.84 2.936-3.076 4.057-5.315 4.057-3.636 0-5.035-2.798-5.035-5.594 0-9.091 15.525-16.224 23.638-16.224 5.456 0 7.133 3.217 7.133 6.295 0 2.658-1.399 6.015-4.894 7.973 4.476.84 6.574 3.217 6.574 6.715 0 4.335-3.076 7.832-10.071 10.349l-12.589 4.476v-.426zm152.315 29.652c-1.818 7.692-6.574 9.931-10.631 9.931-5.874 0-9.231-4.475-9.231-12.029v-13.429c0-5.315-1.677-6.852-3.776-8.532v-.419c6.993-1.679 12.168-7.133 13.988-13.428l.559.14v11.889h7.273c.419 0 .419.281.419 1.119 0 3.076-2.239 3.076-3.357 3.076-2.658.14-4.476.559-4.476 3.635v16.084c0 4.616 1.818 5.316 3.217 5.316 1.678 0 3.636-.981 5.456-3.636zm-72.451-47.835c0 2.658.559 4.897 1.54 5.175v.419l-4.897-.281c-2.239-.14-2.658-2.098-2.658-3.776v-10.349c0-2.518-.559-3.917-1.677-3.917-1.399 0-2.517 2.658-2.517 6.015v6.855c0 2.657.699 4.475 1.677 4.756v.419h-5.037c-2.239 0-2.657-2.099-2.657-3.776v-10.21c0-2.798-.981-3.775-1.818-3.775-1.259 0-2.377 2.657-2.377 6.014v6.715c0 3.357 1.118 4.335 2.099 4.615v.419l-9.791.84v-.419c.84-.699 1.677-2.098 1.677-5.175v-12.172c0-2.658-.699-4.335-1.677-4.616v-.419l5.175-.418c2.239-.141 2.517 1.958 2.517 3.635.7-3.076 3.498-4.475 5.594-4.475 2.657 0 4.335 2.239 4.615 4.616 1.119-2.658 2.099-4.616 4.757-4.616 3.216 0 5.455 2.936 5.455 8.251zm9.232 3.636c1.539 0 2.798-1.118 2.798-2.377 0-.98-.84-2.099-3.498-3.635-2.657-1.54-6.433-3.498-6.433-8.392 0-3.357 1.677-6.714 6.574-6.714 2.376 0 3.916.839 5.315.839.559 0 .84-.14 1.259-.418h.418l.559 7.832-.418.141c-1.399-3.636-3.917-5.875-6.156-5.875-1.677 0-2.517 1.119-2.517 2.099 0 1.958 3.077 3.357 5.875 5.034 1.958 1.259 4.335 2.936 4.335 6.993 0 4.756-3.217 7.414-6.855 7.414-2.517 0-3.357-1.259-5.734-1.259-1.118 0-1.399.281-1.677.281h-.419l-.419-7.833.419-.14c1.537 4.192 4.475 6.01 6.574 6.01m37.623-13.985 4.475 1.399c2.939.977 3.357 1.679 3.357 3.916v1.399c1.259-1.958 2.798-3.076 4.616-3.076 2.658 0 4.197 2.098 4.197 4.335 0 2.657-2.098 4.756-4.615 4.894l-.141-.279c.419-.418.84-.978.84-1.539 0-1.118-.978-2.377-2.517-2.377-.978 0-1.958.559-2.377 1.958v11.049c0 2.518.699 3.917 1.399 4.335v.419l-9.091-3.217v-.418c1.258-.419 1.677-.981 1.677-3.636v-14.547c0-2.376-.699-3.357-1.818-4.194v-.421zm-104.202-9.092 4.475-.977c2.939-.559 3.357 1.399 3.357 3.916v20.421c0 3.916.84 4.197 1.818 4.475v.422l-9.51 2.098v-.418c.978-1.119 1.54-1.818 1.54-5.035v-20.14c0-2.939-.559-4.197-1.68-4.335v-.427zm64.059 54.968c0-3.497-1.399-6.992-4.057-6.992-3.076 0-4.756 4.756-4.756 11.608 0 6.855 1.677 11.05 4.616 11.05 2.936 0 4.197-3.917 4.197-6.434zm-77.345-34.408v7.692c0 2.239.419 2.798 1.399 2.798 2.239 0 5.175-3.077 5.175-6.852 0-3.917-3.219-5.316-6.574-3.638m1.677 45.037c0 1.817 1.259 3.775 3.498 3.775s4.335-1.817 4.335-6.992v-3.498c-2.377 1.82-7.833 2.798-7.833 6.715m-1.677-48.395c3.498-1.258 5.315-4.056 5.315-7.133 0-3.357-2.239-4.756-5.315-3.357zm42.379-3.076c0 6.852-3.916 13.148-10.49 13.148-5.734 0-8.95-4.616-8.95-11.049 0-7.414 4.335-13.429 10.349-13.429 5.035 0 9.091 4.337 9.091 11.33m-9.931 10.35c1.678 0 2.798-3.776 2.798-10.072 0-6.574-1.258-8.812-2.517-8.812-1.399 0-2.798 2.657-2.798 9.65 0 5.318.84 9.234 2.517 9.234m74.968 36.786c-3.216.977-4.615 1.536-4.615 3.775 0 3.636 3.776 5.597 7.551 5.597 2.798 0 6.156-1.119 8.532-3.077l.56.281c-1.959 6.293-7.274 9.372-12.73 9.372-8.672 0-15.246-7.414-15.246-18.042 0-10.35 6.293-18.463 15.384-18.463 7.133 0 12.729 5.034 12.729 12.867.005 3.773-1.253 4.332-12.165 7.69m-5.312-2.658c4.475-2.099 7.414-2.517 7.414-7.273 0-2.518-.84-6.855-3.498-6.855-2.938.002-4.197 5.037-3.916 14.128m7.271-38.185c-1.54.419-2.658.98-2.658 2.517 0 2.099 2.098 4.057 5.175 4.057 1.818 0 3.497-.699 5.034-1.818l.419.141c-1.118 3.635-3.916 5.734-7.414 5.734-4.056 0-7.273-2.798-8.951-6.293-1.539 2.098-3.637 3.076-5.455 3.076-3.217 0-5.316-2.936-5.316-7.552v-10.63c0-3.357-1.399-4.197-2.657-5.175v-.419c4.756-.699 7.273-3.497 8.391-7.692h.419v7.973l4.197.978c.419.14.419.281.419.559v.419c0 1.118-.84 1.118-1.818 1.118-1.539 0-2.938-.141-2.938 1.399v11.468c0 3.076 1.118 3.357 1.958 3.357.419 0 1.399-.14 2.098-.419-.418-1.539-.559-3.635-.559-5.034 0-7.274 3.636-11.889 8.951-11.889 4.897 0 8.673 3.916 8.673 9.231.005 2.798-.973 3.076-7.968 4.894m-3.077-1.818c2.658-1.118 4.897-1.539 4.897-4.615 0-1.958-.84-5.175-2.377-5.175-1.539 0-2.66 3.076-2.52 9.79" fill="#ffd700" fill-rule="nonzero"/></svg>